<mxfile host="app.diagrams.net" modified="2020-09-30T21:06:18.977Z" agent="5.0 (Windows)" etag="TpZ5UnqbRpAAXS7vzMrG" version="13.7.6" type="github">
  <diagram id="8_koJqxYFwasKQS4h1rk" name="Page-1">
    <mxGraphModel dx="898" dy="451" grid="1" gridSize="10" guides="1" tooltips="1" connect="1" arrows="1" fold="1" page="1" pageScale="1" pageWidth="850" pageHeight="1100" math="0" shadow="0">
      <root>
        <mxCell id="0" />
        <mxCell id="1" parent="0" />
        <mxCell id="FuaK29XSTBZtPipu1BOP-3" value="" style="edgeStyle=orthogonalEdgeStyle;rounded=0;orthogonalLoop=1;jettySize=auto;html=1;" edge="1" parent="1" source="FuaK29XSTBZtPipu1BOP-1" target="FuaK29XSTBZtPipu1BOP-2">
          <mxGeometry relative="1" as="geometry" />
        </mxCell>
        <mxCell id="FuaK29XSTBZtPipu1BOP-1" value="DevOps" style="ellipse;whiteSpace=wrap;html=1;" vertex="1" parent="1">
          <mxGeometry x="370" y="30" width="120" height="80" as="geometry" />
        </mxCell>
        <mxCell id="FuaK29XSTBZtPipu1BOP-5" value="" style="edgeStyle=orthogonalEdgeStyle;rounded=0;orthogonalLoop=1;jettySize=auto;html=1;" edge="1" parent="1" source="FuaK29XSTBZtPipu1BOP-2" target="FuaK29XSTBZtPipu1BOP-4">
          <mxGeometry relative="1" as="geometry" />
        </mxCell>
        <mxCell id="FuaK29XSTBZtPipu1BOP-35" value="" style="edgeStyle=orthogonalEdgeStyle;rounded=0;orthogonalLoop=1;jettySize=auto;html=1;" edge="1" parent="1" source="FuaK29XSTBZtPipu1BOP-2" target="FuaK29XSTBZtPipu1BOP-34">
          <mxGeometry relative="1" as="geometry" />
        </mxCell>
        <mxCell id="FuaK29XSTBZtPipu1BOP-36" style="edgeStyle=orthogonalEdgeStyle;rounded=0;orthogonalLoop=1;jettySize=auto;html=1;exitX=0;exitY=0.25;exitDx=0;exitDy=0;entryX=1;entryY=0.5;entryDx=0;entryDy=0;" edge="1" parent="1" source="FuaK29XSTBZtPipu1BOP-2" target="FuaK29XSTBZtPipu1BOP-37">
          <mxGeometry relative="1" as="geometry">
            <mxPoint x="270" y="170" as="targetPoint" />
          </mxGeometry>
        </mxCell>
        <mxCell id="FuaK29XSTBZtPipu1BOP-38" style="edgeStyle=orthogonalEdgeStyle;rounded=0;orthogonalLoop=1;jettySize=auto;html=1;exitX=0;exitY=0.75;exitDx=0;exitDy=0;" edge="1" parent="1" source="FuaK29XSTBZtPipu1BOP-2" target="FuaK29XSTBZtPipu1BOP-39">
          <mxGeometry relative="1" as="geometry">
            <mxPoint x="240" y="290" as="targetPoint" />
          </mxGeometry>
        </mxCell>
        <mxCell id="FuaK29XSTBZtPipu1BOP-46" value="" style="edgeStyle=orthogonalEdgeStyle;rounded=0;orthogonalLoop=1;jettySize=auto;html=1;" edge="1" parent="1" source="FuaK29XSTBZtPipu1BOP-2" target="FuaK29XSTBZtPipu1BOP-45">
          <mxGeometry relative="1" as="geometry" />
        </mxCell>
        <mxCell id="FuaK29XSTBZtPipu1BOP-47" style="edgeStyle=orthogonalEdgeStyle;rounded=0;orthogonalLoop=1;jettySize=auto;html=1;exitX=1;exitY=0.25;exitDx=0;exitDy=0;" edge="1" parent="1" source="FuaK29XSTBZtPipu1BOP-2" target="FuaK29XSTBZtPipu1BOP-48">
          <mxGeometry relative="1" as="geometry">
            <mxPoint x="590" y="180" as="targetPoint" />
            <Array as="points">
              <mxPoint x="560" y="215" />
              <mxPoint x="560" y="160" />
            </Array>
          </mxGeometry>
        </mxCell>
        <mxCell id="FuaK29XSTBZtPipu1BOP-49" style="edgeStyle=orthogonalEdgeStyle;rounded=0;orthogonalLoop=1;jettySize=auto;html=1;exitX=1;exitY=0.75;exitDx=0;exitDy=0;" edge="1" parent="1" source="FuaK29XSTBZtPipu1BOP-2" target="FuaK29XSTBZtPipu1BOP-50">
          <mxGeometry relative="1" as="geometry">
            <mxPoint x="570" y="290" as="targetPoint" />
            <Array as="points">
              <mxPoint x="600" y="245" />
              <mxPoint x="600" y="280" />
            </Array>
          </mxGeometry>
        </mxCell>
        <mxCell id="FuaK29XSTBZtPipu1BOP-51" style="edgeStyle=orthogonalEdgeStyle;rounded=0;orthogonalLoop=1;jettySize=auto;html=1;exitX=0.75;exitY=1;exitDx=0;exitDy=0;" edge="1" parent="1" source="FuaK29XSTBZtPipu1BOP-2" target="FuaK29XSTBZtPipu1BOP-52">
          <mxGeometry relative="1" as="geometry">
            <mxPoint x="560" y="380" as="targetPoint" />
            <Array as="points">
              <mxPoint x="570" y="260" />
              <mxPoint x="570" y="300" />
              <mxPoint x="630" y="300" />
              <mxPoint x="630" y="360" />
            </Array>
          </mxGeometry>
        </mxCell>
        <mxCell id="FuaK29XSTBZtPipu1BOP-2" value="Learn a Programing Language" style="whiteSpace=wrap;html=1;" vertex="1" parent="1">
          <mxGeometry x="370" y="200" width="120" height="60" as="geometry" />
        </mxCell>
        <mxCell id="FuaK29XSTBZtPipu1BOP-7" value="" style="edgeStyle=orthogonalEdgeStyle;rounded=0;orthogonalLoop=1;jettySize=auto;html=1;" edge="1" parent="1" source="FuaK29XSTBZtPipu1BOP-4" target="FuaK29XSTBZtPipu1BOP-6">
          <mxGeometry relative="1" as="geometry" />
        </mxCell>
        <mxCell id="FuaK29XSTBZtPipu1BOP-55" value="" style="edgeStyle=orthogonalEdgeStyle;rounded=0;orthogonalLoop=1;jettySize=auto;html=1;" edge="1" parent="1" source="FuaK29XSTBZtPipu1BOP-4" target="FuaK29XSTBZtPipu1BOP-54">
          <mxGeometry relative="1" as="geometry" />
        </mxCell>
        <mxCell id="FuaK29XSTBZtPipu1BOP-57" value="" style="edgeStyle=orthogonalEdgeStyle;rounded=0;orthogonalLoop=1;jettySize=auto;html=1;" edge="1" parent="1" source="FuaK29XSTBZtPipu1BOP-4" target="FuaK29XSTBZtPipu1BOP-56">
          <mxGeometry relative="1" as="geometry" />
        </mxCell>
        <mxCell id="FuaK29XSTBZtPipu1BOP-4" value="Understand different OS Concepts" style="whiteSpace=wrap;html=1;" vertex="1" parent="1">
          <mxGeometry x="370" y="370" width="120" height="60" as="geometry" />
        </mxCell>
        <mxCell id="FuaK29XSTBZtPipu1BOP-9" value="" style="edgeStyle=orthogonalEdgeStyle;rounded=0;orthogonalLoop=1;jettySize=auto;html=1;" edge="1" parent="1" source="FuaK29XSTBZtPipu1BOP-6" target="FuaK29XSTBZtPipu1BOP-8">
          <mxGeometry relative="1" as="geometry" />
        </mxCell>
        <mxCell id="FuaK29XSTBZtPipu1BOP-11" value="" style="edgeStyle=orthogonalEdgeStyle;rounded=0;orthogonalLoop=1;jettySize=auto;html=1;" edge="1" parent="1" source="FuaK29XSTBZtPipu1BOP-6" target="FuaK29XSTBZtPipu1BOP-10">
          <mxGeometry relative="1" as="geometry" />
        </mxCell>
        <mxCell id="FuaK29XSTBZtPipu1BOP-13" value="" style="edgeStyle=orthogonalEdgeStyle;rounded=0;orthogonalLoop=1;jettySize=auto;html=1;" edge="1" parent="1" source="FuaK29XSTBZtPipu1BOP-6" target="FuaK29XSTBZtPipu1BOP-12">
          <mxGeometry relative="1" as="geometry" />
        </mxCell>
        <mxCell id="FuaK29XSTBZtPipu1BOP-6" value="Learn about managing servers" style="whiteSpace=wrap;html=1;" vertex="1" parent="1">
          <mxGeometry x="370" y="540" width="120" height="60" as="geometry" />
        </mxCell>
        <mxCell id="FuaK29XSTBZtPipu1BOP-8" value="Operating System" style="whiteSpace=wrap;html=1;" vertex="1" parent="1">
          <mxGeometry x="110" y="520" width="120" height="60" as="geometry" />
        </mxCell>
        <mxCell id="FuaK29XSTBZtPipu1BOP-10" value="Learn to live in Terminal" style="whiteSpace=wrap;html=1;" vertex="1" parent="1">
          <mxGeometry x="640" y="520" width="120" height="60" as="geometry" />
        </mxCell>
        <mxCell id="FuaK29XSTBZtPipu1BOP-15" value="" style="edgeStyle=orthogonalEdgeStyle;rounded=0;orthogonalLoop=1;jettySize=auto;html=1;" edge="1" parent="1" source="FuaK29XSTBZtPipu1BOP-12" target="FuaK29XSTBZtPipu1BOP-14">
          <mxGeometry relative="1" as="geometry" />
        </mxCell>
        <mxCell id="FuaK29XSTBZtPipu1BOP-12" value="Network, Security and Protocols" style="whiteSpace=wrap;html=1;" vertex="1" parent="1">
          <mxGeometry x="370" y="620" width="120" height="60" as="geometry" />
        </mxCell>
        <mxCell id="FuaK29XSTBZtPipu1BOP-17" value="" style="edgeStyle=orthogonalEdgeStyle;rounded=0;orthogonalLoop=1;jettySize=auto;html=1;" edge="1" parent="1" source="FuaK29XSTBZtPipu1BOP-14" target="FuaK29XSTBZtPipu1BOP-16">
          <mxGeometry relative="1" as="geometry" />
        </mxCell>
        <mxCell id="FuaK29XSTBZtPipu1BOP-14" value="What is and how to set up a ______" style="whiteSpace=wrap;html=1;" vertex="1" parent="1">
          <mxGeometry x="370" y="760" width="120" height="60" as="geometry" />
        </mxCell>
        <mxCell id="FuaK29XSTBZtPipu1BOP-19" value="" style="edgeStyle=orthogonalEdgeStyle;rounded=0;orthogonalLoop=1;jettySize=auto;html=1;" edge="1" parent="1" source="FuaK29XSTBZtPipu1BOP-16" target="FuaK29XSTBZtPipu1BOP-18">
          <mxGeometry relative="1" as="geometry" />
        </mxCell>
        <mxCell id="FuaK29XSTBZtPipu1BOP-16" value="Learn Infrastructure as Code" style="whiteSpace=wrap;html=1;" vertex="1" parent="1">
          <mxGeometry x="370" y="900" width="120" height="60" as="geometry" />
        </mxCell>
        <mxCell id="FuaK29XSTBZtPipu1BOP-21" value="" style="edgeStyle=orthogonalEdgeStyle;rounded=0;orthogonalLoop=1;jettySize=auto;html=1;" edge="1" parent="1" source="FuaK29XSTBZtPipu1BOP-18" target="FuaK29XSTBZtPipu1BOP-20">
          <mxGeometry relative="1" as="geometry" />
        </mxCell>
        <mxCell id="FuaK29XSTBZtPipu1BOP-18" value="Learn some CI/CD Tool" style="whiteSpace=wrap;html=1;" vertex="1" parent="1">
          <mxGeometry x="370" y="1040" width="120" height="60" as="geometry" />
        </mxCell>
        <mxCell id="FuaK29XSTBZtPipu1BOP-23" value="" style="edgeStyle=orthogonalEdgeStyle;rounded=0;orthogonalLoop=1;jettySize=auto;html=1;" edge="1" parent="1" source="FuaK29XSTBZtPipu1BOP-20" target="FuaK29XSTBZtPipu1BOP-22">
          <mxGeometry relative="1" as="geometry" />
        </mxCell>
        <mxCell id="FuaK29XSTBZtPipu1BOP-24" style="edgeStyle=orthogonalEdgeStyle;rounded=0;orthogonalLoop=1;jettySize=auto;html=1;exitX=1;exitY=0.75;exitDx=0;exitDy=0;" edge="1" parent="1" source="FuaK29XSTBZtPipu1BOP-20" target="FuaK29XSTBZtPipu1BOP-25">
          <mxGeometry relative="1" as="geometry">
            <mxPoint x="540" y="1270" as="targetPoint" />
          </mxGeometry>
        </mxCell>
        <mxCell id="FuaK29XSTBZtPipu1BOP-26" style="edgeStyle=orthogonalEdgeStyle;rounded=0;orthogonalLoop=1;jettySize=auto;html=1;exitX=1;exitY=0.25;exitDx=0;exitDy=0;" edge="1" parent="1" source="FuaK29XSTBZtPipu1BOP-20" target="FuaK29XSTBZtPipu1BOP-27">
          <mxGeometry relative="1" as="geometry">
            <mxPoint x="560" y="1140" as="targetPoint" />
          </mxGeometry>
        </mxCell>
        <mxCell id="FuaK29XSTBZtPipu1BOP-29" value="" style="edgeStyle=orthogonalEdgeStyle;rounded=0;orthogonalLoop=1;jettySize=auto;html=1;" edge="1" parent="1" source="FuaK29XSTBZtPipu1BOP-20" target="FuaK29XSTBZtPipu1BOP-28">
          <mxGeometry relative="1" as="geometry" />
        </mxCell>
        <mxCell id="FuaK29XSTBZtPipu1BOP-20" value="Learn how to monitor software and infrastructure" style="whiteSpace=wrap;html=1;" vertex="1" parent="1">
          <mxGeometry x="370" y="1180" width="120" height="60" as="geometry" />
        </mxCell>
        <mxCell id="FuaK29XSTBZtPipu1BOP-22" value="Infrastructure Monitoring" style="whiteSpace=wrap;html=1;" vertex="1" parent="1">
          <mxGeometry x="570" y="1180" width="120" height="60" as="geometry" />
        </mxCell>
        <mxCell id="FuaK29XSTBZtPipu1BOP-25" value="Application Monitoring" style="rounded=0;whiteSpace=wrap;html=1;" vertex="1" parent="1">
          <mxGeometry x="490" y="1290" width="120" height="60" as="geometry" />
        </mxCell>
        <mxCell id="FuaK29XSTBZtPipu1BOP-27" value="Logs Management" style="rounded=0;whiteSpace=wrap;html=1;" vertex="1" parent="1">
          <mxGeometry x="500" y="1110" width="120" height="60" as="geometry" />
        </mxCell>
        <mxCell id="FuaK29XSTBZtPipu1BOP-31" value="" style="edgeStyle=orthogonalEdgeStyle;rounded=0;orthogonalLoop=1;jettySize=auto;html=1;" edge="1" parent="1" source="FuaK29XSTBZtPipu1BOP-28" target="FuaK29XSTBZtPipu1BOP-30">
          <mxGeometry relative="1" as="geometry" />
        </mxCell>
        <mxCell id="FuaK29XSTBZtPipu1BOP-28" value="Cloud Providers" style="whiteSpace=wrap;html=1;" vertex="1" parent="1">
          <mxGeometry x="370" y="1360" width="120" height="60" as="geometry" />
        </mxCell>
        <mxCell id="FuaK29XSTBZtPipu1BOP-33" value="" style="edgeStyle=orthogonalEdgeStyle;rounded=0;orthogonalLoop=1;jettySize=auto;html=1;" edge="1" parent="1" source="FuaK29XSTBZtPipu1BOP-30" target="FuaK29XSTBZtPipu1BOP-32">
          <mxGeometry relative="1" as="geometry" />
        </mxCell>
        <mxCell id="FuaK29XSTBZtPipu1BOP-30" value="Cloud Design Pattern" style="whiteSpace=wrap;html=1;" vertex="1" parent="1">
          <mxGeometry x="570" y="1360" width="120" height="60" as="geometry" />
        </mxCell>
        <mxCell id="FuaK29XSTBZtPipu1BOP-32" value="Keep Learning" style="ellipse;whiteSpace=wrap;html=1;" vertex="1" parent="1">
          <mxGeometry x="570" y="1490" width="120" height="80" as="geometry" />
        </mxCell>
        <mxCell id="FuaK29XSTBZtPipu1BOP-34" value="Python" style="whiteSpace=wrap;html=1;" vertex="1" parent="1">
          <mxGeometry x="180" y="200" width="120" height="60" as="geometry" />
        </mxCell>
        <mxCell id="FuaK29XSTBZtPipu1BOP-37" value="Ruby" style="rounded=0;whiteSpace=wrap;html=1;" vertex="1" parent="1">
          <mxGeometry x="180" y="130" width="120" height="60" as="geometry" />
        </mxCell>
        <mxCell id="FuaK29XSTBZtPipu1BOP-39" value="Node.js" style="rounded=0;whiteSpace=wrap;html=1;" vertex="1" parent="1">
          <mxGeometry x="180" y="260" width="120" height="60" as="geometry" />
        </mxCell>
        <mxCell id="FuaK29XSTBZtPipu1BOP-45" value="Go" style="whiteSpace=wrap;html=1;" vertex="1" parent="1">
          <mxGeometry x="670" y="200" width="120" height="60" as="geometry" />
        </mxCell>
        <mxCell id="FuaK29XSTBZtPipu1BOP-48" value="Rust" style="rounded=0;whiteSpace=wrap;html=1;" vertex="1" parent="1">
          <mxGeometry x="570" y="130" width="120" height="60" as="geometry" />
        </mxCell>
        <mxCell id="FuaK29XSTBZtPipu1BOP-50" value="C" style="rounded=0;whiteSpace=wrap;html=1;" vertex="1" parent="1">
          <mxGeometry x="720" y="270" width="120" height="60" as="geometry" />
        </mxCell>
        <mxCell id="FuaK29XSTBZtPipu1BOP-52" value="C++" style="rounded=0;whiteSpace=wrap;html=1;" vertex="1" parent="1">
          <mxGeometry x="720" y="350" width="120" height="60" as="geometry" />
        </mxCell>
        <mxCell id="FuaK29XSTBZtPipu1BOP-54" value="Startup Management (intid)" style="whiteSpace=wrap;html=1;" vertex="1" parent="1">
          <mxGeometry x="630" y="430" width="120" height="60" as="geometry" />
        </mxCell>
        <mxCell id="FuaK29XSTBZtPipu1BOP-56" value="Service Management (systemd)" style="whiteSpace=wrap;html=1;" vertex="1" parent="1">
          <mxGeometry x="110" y="390" width="120" height="60" as="geometry" />
        </mxCell>
        <mxCell id="FuaK29XSTBZtPipu1BOP-59" value="Get some administration&amp;nbsp; knowledge in some OS. Go with any linux distro. Pick Ubuntu if you have a little no experience with Linux" style="text;html=1;strokeColor=none;fillColor=none;spacing=5;spacingTop=-20;whiteSpace=wrap;overflow=hidden;rounded=0;" vertex="1" parent="1">
          <mxGeometry x="350" y="440" width="170" height="50" as="geometry" />
        </mxCell>
        <mxCell id="FuaK29XSTBZtPipu1BOP-61" value="It doents matter which language you pick, key is to get some programming knowlege for automation" style="text;html=1;strokeColor=none;fillColor=none;spacing=5;spacingTop=-20;whiteSpace=wrap;overflow=hidden;rounded=0;" vertex="1" parent="1">
          <mxGeometry x="350" y="270" width="190" height="50" as="geometry" />
        </mxCell>
      </root>
    </mxGraphModel>
  </diagram>
</mxfile>
